<svg xmlns="http://www.w3.org/2000/svg" version="1.1" xmlns:xlink="http://www.w3.org/1999/xlink" xmlns:svgjs="http://svgjs.dev/svgjs" width="1000" height="1000" viewBox="0 0 1000 1000"><rect width="1000" height="1000" fill="#000000"></rect><g transform="matrix(0.7,0,0,0.7,149.57575757575756,282.1265587044535)"><svg viewBox="0 0 396 247" data-background-color="#ffffff" preserveAspectRatio="xMidYMid meet" height="623" width="1000" xmlns="http://www.w3.org/2000/svg" xmlns:xlink="http://www.w3.org/1999/xlink"><defs></defs><g id="tight-bounds" transform="matrix(1,0,0,1,0.2400000000000091,-0.09999999999999432)"><svg viewBox="0 0 395.52 247.2" height="247.2" width="395.52"><g><svg viewBox="0 0 395.52 247.2" height="247.2" width="395.52"><rect width="395.52" height="247.2" x="0" y="0" opacity="1" fill="#ffffff" data-fill-palette-color="background"></rect><g transform="matrix(1,0,0,1,27.05430960000001,90.2499554349223)"><svg viewBox="0 0 341.41138079999996 66.70008913015539" height="66.70008913015539" width="341.41138079999996"><g><svg viewBox="0 0 341.41138079999996 66.70008913015539" height="66.70008913015539" width="341.41138079999996"><g><svg viewBox="0 0 341.41138079999996 66.70008913015539" height="66.70008913015539" width="341.41138079999996"><g><path d="M0 66.7v-66.7h341.411v66.7z" fill="#4d7e3e" stroke="transparent" stroke-width="0" rx="0%" data-fill-palette-color="tertiary"></path><path d="M4.509 62.191v-57.682h332.393v57.682z" fill="#ffffff" stroke="transparent" stroke-width="0" rx="0%" data-fill-palette-color="quaternary"></path><path d="M13.527 53.173v-39.646h314.357v39.646z" fill="#4d7e3e" stroke="transparent" stroke-width="0" data-fill-palette-color="tertiary"></path></g><g transform="matrix(1,0,0,1,27.054309599999996,27.054309599999996)"><svg viewBox="0 0 287.30276159999994 12.591469930155395" height="12.591469930155395" width="287.30276159999994"><g><svg viewBox="0 0 287.30276159999994 12.591469930155395" height="12.591469930155395" width="287.30276159999994"><g transform="matrix(1,0,0,1,0,0)"><svg width="287.30276159999994" viewBox="1.100000023841858 -34.5 809.9525146484375 35.5" height="12.591469930155395" data-palette-color="#ffffff"><path d="M27.15-17.5L27.15-17.5Q30.7-16.75 32.58-14.5 34.45-12.25 34.45-9.25L34.45-9.25Q34.45-5.05 30.9-2.6 27.35-0.15 21.15 0L21.15 0 1.4 0 1.1-1.6Q2.95-3 5.35-4.2L5.35-4.2 5.35-29.95 1.8-30.55 1.85-33.3Q8.85-33.7 20-33.7L20-33.7Q25.7-33.7 29.38-31.23 33.05-28.75 33.05-25.05L33.05-25.05Q33.05-22.7 31.5-20.48 29.95-18.25 27.15-17.5ZM22.75-23.8L22.75-23.8Q22.75-25.4 21.98-26.9 21.2-28.4 19.95-28.85L19.95-28.85 15.85-28.1 15.85-19.2 18-19.2Q20.35-19.2 21.55-20.55 22.75-21.9 22.75-23.8ZM15.85-5.05L18.9-4.65 19.55-4.6Q21.6-4.6 22.7-6.08 23.8-7.55 23.8-9.55L23.8-9.55Q23.8-11.7 22.48-13.5 21.15-15.3 19.2-15.3L19.2-15.3 15.85-15.3 15.85-5.05ZM61.1-11.35L66.85-10.9Q66.95-5.95 66.25 0L66.25 0 37.25 0 36.95-1.6Q38.8-3 41.2-4.2L41.2-4.2 41.2-29.9 37.4-30.55 37.45-33.3 66.7-33.3Q66.8-31.45 66.5-28.23 66.2-25 65.65-22.55L65.65-22.55 59.9-22.55 58.9-27.85 51.7-28.35 51.7-18.8 61.85-19.65 61.85-13.9 51.7-14.3 51.7-5.05 59.15-5.7 61.1-11.35ZM108.05-33.3L108.34-31.7Q106.69-30.4 104.44-29.25L104.44-29.25 104.09 0 95.14 0.7 81.14-19.95 81.8-14 81.8-3.5 86.19-2.75 86.14 0 70.75 0 70.44-1.6Q72.3-3 74.69-4.2L74.69-4.2 74.69-29.8 70.94-30.55 71-33.3 84.3-33.3 84.3-33.25 98.09-12.35 97.39-18.5 97.39-29.7 92.5-30.55 92.55-33.3 108.05-33.3ZM127.54-33.7L127.54-33.7Q133.39-33.7 137.54-31.28 141.69-28.85 143.79-25 145.89-21.15 145.89-16.95L145.89-16.95Q145.89-9.55 141.14-4.85 136.39-0.15 128.49 0L128.49 0 109.84 0 109.54-1.6Q111.39-3 113.79-4.2L113.79-4.2 113.79-29.95 110.24-30.55 110.29-33.3Q118.09-33.7 127.54-33.7ZM127.24-5L127.24-5Q130.74-5 132.89-8.22 135.04-11.45 135.04-16.35L135.04-16.35Q135.04-20.15 133.59-23.65 132.14-27.15 129.64-28.85L129.64-28.85 124.29-28.1 124.29-5.5Q125.79-5 127.24-5ZM188.34-8.2L189.89-3.55 179.19 0.85 177.74 0.9Q171.24 0.9 167.26-1.65 163.29-4.2 161.59-8.08 159.89-11.95 159.89-16.2L159.89-16.2Q159.89-20.9 161.91-25.05 163.94-29.2 168.04-31.75 172.14-34.3 178.04-34.3L178.04-34.3Q184.09-34.3 188.94-31L188.94-31 188.99-30.15Q188.99-26.15 187.64-20.75L187.64-20.75 181.44-20.75 179.64-27.9Q177.14-28.8 174.14-29.1L174.14-29.1Q170.29-24.95 170.29-17.5L170.29-17.5Q170.29-12.25 172.69-8.9 175.09-5.55 179.59-5.5L179.59-5.5 188.34-8.2ZM227.29-3.5L231.74-2.75 231.69 0 212.84 0 212.54-1.6Q214.39-3 216.79-4.2L216.79-4.2 216.79-14.05 205.94-14.05 205.94-3.5 210.39-2.75 210.34 0 191.49 0 191.19-1.6Q193.03-3 195.44-4.2L195.44-4.2 195.44-29.9 191.59-30.55 191.64-33.3 209.89-33.3 210.19-31.7Q208.34-30.3 205.94-29.1L205.94-29.1 205.94-19.15 216.79-19.15 216.79-29.9 212.94-30.55 212.99-33.3 231.24-33.3 231.54-31.7Q229.69-30.3 227.29-29.1L227.29-29.1 227.29-3.5ZM265.63-3.35L269.18-2.75 269.13 0 251.03 0 250.73-1.6Q252.48-2.95 254.48-3.95L254.48-3.95 252.93-8.1 242.73-8.1 240.98-3.45 245.03-2.75 244.98 0 230.63 0 230.33-1.6Q232.03-2.95 234.53-4.2L234.53-4.2 244.88-29.9 244.03-32.25 253.13-34.5 265.63-3.35ZM244.43-12.7L251.23-12.7 247.83-21.95 244.43-12.7ZM311.63-3.65L316.13-2.35 316.08 0 297.68 0 297.38-1.6Q299.03-2.9 301.63-4.2L301.63-4.2 301.58-13.2 302.28-22.3 294.03-0.8 286.93 0.35 278.78-22.25 279.48-13.2 279.43-3.6 283.68-2.35 283.63 0 268.23 0 267.93-1.6Q269.58-2.95 272.33-4.3L272.33-4.3 272.83-28.9 268.53-30.15 268.58-32.5 284.93-32.5 284.88-32.45 292.83-10.15 301.28-32.5 315.43-32.5 315.73-30.9Q313.88-29.45 311.23-28.15L311.23-28.15 311.63-3.65ZM343.38-17.5L343.38-17.5Q346.93-16.75 348.8-14.5 350.68-12.25 350.68-9.25L350.68-9.25Q350.68-5.05 347.13-2.6 343.58-0.15 337.38 0L337.38 0 317.63 0 317.33-1.6Q319.18-3 321.58-4.2L321.58-4.2 321.58-29.95 318.03-30.55 318.08-33.3Q325.08-33.7 336.23-33.7L336.23-33.7Q341.93-33.7 345.6-31.23 349.28-28.75 349.28-25.05L349.28-25.05Q349.28-22.7 347.73-20.48 346.18-18.25 343.38-17.5ZM338.98-23.8L338.98-23.8Q338.98-25.4 338.2-26.9 337.43-28.4 336.18-28.85L336.18-28.85 332.08-28.1 332.08-19.2 334.23-19.2Q336.58-19.2 337.78-20.55 338.98-21.9 338.98-23.8ZM332.08-5.05L335.13-4.65 335.78-4.6Q337.83-4.6 338.93-6.08 340.03-7.55 340.03-9.55L340.03-9.55Q340.03-11.7 338.7-13.5 337.38-15.3 335.43-15.3L335.43-15.3 332.08-15.3 332.08-5.05ZM377.33-11.35L383.08-10.9Q383.18-5.95 382.48 0L382.48 0 353.48 0 353.18-1.6Q355.03-3 357.43-4.2L357.43-4.2 357.43-29.9 353.63-30.55 353.68-33.3 382.93-33.3Q383.03-31.45 382.73-28.23 382.43-25 381.88-22.55L381.88-22.55 376.13-22.55 375.13-27.85 367.93-28.35 367.93-18.8 378.08-19.65 378.08-13.9 367.93-14.3 367.93-5.05 375.38-5.7 377.33-11.35ZM419.77-3.25L422.72-2.75 422.67 0 410.27 0 403.82-12.45 401.42-12.4 401.42-3.4 405.17-2.75 405.12 0 386.97 0 386.67-1.6Q388.52-3 390.92-4.2L390.92-4.2 390.92-29.9 387.12-30.55 387.17-33.3 405.12-33.7Q411.37-33.7 415.42-30.68 419.47-27.65 419.47-23L419.47-23Q419.47-20.1 417.77-17.7 416.07-15.3 413.17-13.9L413.17-13.9 419.77-3.25ZM401.42-28.1L401.42-17.5Q402.62-17.15 403.77-17.15L403.77-17.15Q408.87-17.15 408.87-22.75L408.87-22.75Q408.87-26.55 406.77-28.85L406.77-28.85 401.42-28.1ZM453.47-34.3L453.47-34.3Q460.92-34.3 465.77-29.25 470.62-24.2 470.62-16.15L470.62-16.15Q470.62-8.35 465.97-3.68 461.32 1 453.82 1L453.82 1Q446.12 1 441.32-3.8 436.52-8.6 436.52-16.4L436.52-16.4Q436.52-24.25 441.29-29.28 446.07-34.3 453.47-34.3ZM450.27-28.4L450.27-28.4Q449.02-27.15 448.24-24.3 447.47-21.45 447.47-17.5L447.47-17.5Q447.47-11.35 449.42-7.8 451.37-4.25 454.72-4.25L454.72-4.25Q455.57-4.25 456.57-4.65L456.57-4.65Q457.97-6.15 458.82-9.22 459.67-12.3 459.67-16.05L459.67-16.05Q459.67-21.45 457.92-25.2 456.17-28.95 452.82-28.95L452.82-28.95Q451.62-28.95 450.27-28.4ZM493.72-27.9L486.57-28.4 486.57-17.85 497.52-18.65 497.52-12.5 486.57-13.05 486.57-3.85 492.77-2.75 492.72 0 472.52 0 472.22-1.6Q473.57-2.7 476.07-4L476.07-4 476.07-29.9 472.27-30.55 472.32-33.3 501.57-33.3Q501.67-31.45 501.37-28.03 501.07-24.6 500.52-22.15L500.52-22.15 494.77-22.15 493.72-27.9ZM545.36-8.2L546.91-3.55 536.21 0.85 534.76 0.9Q528.26 0.9 524.28-1.65 520.31-4.2 518.61-8.08 516.91-11.95 516.91-16.2L516.91-16.2Q516.91-20.9 518.93-25.05 520.96-29.2 525.06-31.75 529.16-34.3 535.06-34.3L535.06-34.3Q541.11-34.3 545.96-31L545.96-31 546.01-30.15Q546.01-26.15 544.66-20.75L544.66-20.75 538.46-20.75 536.66-27.9Q534.16-28.8 531.16-29.1L531.16-29.1Q527.31-24.95 527.31-17.5L527.31-17.5Q527.31-12.25 529.71-8.9 532.11-5.55 536.61-5.5L536.61-5.5 545.36-8.2ZM563.46-34.3L563.46-34.3Q570.91-34.3 575.76-29.25 580.61-24.2 580.61-16.15L580.61-16.15Q580.61-8.35 575.96-3.68 571.31 1 563.81 1L563.81 1Q556.11 1 551.31-3.8 546.51-8.6 546.51-16.4L546.51-16.4Q546.51-24.25 551.28-29.28 556.06-34.3 563.46-34.3ZM560.26-28.4L560.26-28.4Q559.01-27.15 558.23-24.3 557.46-21.45 557.46-17.5L557.46-17.5Q557.46-11.35 559.41-7.8 561.36-4.25 564.71-4.25L564.71-4.25Q565.56-4.25 566.56-4.65L566.56-4.65Q567.96-6.15 568.81-9.22 569.66-12.3 569.66-16.05L569.66-16.05Q569.66-21.45 567.91-25.2 566.16-28.95 562.81-28.95L562.81-28.95Q561.61-28.95 560.26-28.4ZM625.75-3.65L630.25-2.35 630.2 0 611.8 0 611.5-1.6Q613.15-2.9 615.75-4.2L615.75-4.2 615.7-13.2 616.4-22.3 608.15-0.8 601.05 0.35 592.9-22.25 593.6-13.2 593.55-3.6 597.8-2.35 597.75 0 582.35 0 582.05-1.6Q583.7-2.95 586.45-4.3L586.45-4.3 586.95-28.9 582.65-30.15 582.7-32.5 599.05-32.5 599-32.45 606.95-10.15 615.4-32.5 629.55-32.5 629.85-30.9Q628-29.45 625.35-28.15L625.35-28.15 625.75-3.65ZM675.1-3.65L679.6-2.35 679.55 0 661.15 0 660.85-1.6Q662.5-2.9 665.1-4.2L665.1-4.2 665.05-13.2 665.75-22.3 657.5-0.8 650.4 0.35 642.25-22.25 642.95-13.2 642.9-3.6 647.15-2.35 647.1 0 631.7 0 631.4-1.6Q633.05-2.95 635.8-4.3L635.8-4.3 636.3-28.9 632-30.15 632.05-32.5 648.4-32.5 648.35-32.45 656.3-10.15 664.75-32.5 678.9-32.5 679.2-30.9Q677.35-29.45 674.7-28.15L674.7-28.15 675.1-3.65ZM704.95-11.35L710.7-10.9Q710.8-5.95 710.1 0L710.1 0 681.1 0 680.8-1.6Q682.65-3 685.05-4.2L685.05-4.2 685.05-29.9 681.25-30.55 681.3-33.3 710.55-33.3Q710.65-31.45 710.35-28.23 710.05-25 709.5-22.55L709.5-22.55 703.75-22.55 702.75-27.85 695.55-28.35 695.55-18.8 705.7-19.65 705.7-13.9 695.55-14.3 695.55-5.05 703-5.7 704.95-11.35ZM747.4-3.25L750.35-2.75 750.3 0 737.9 0 731.45-12.45 729.05-12.4 729.05-3.4 732.8-2.75 732.75 0 714.6 0 714.3-1.6Q716.15-3 718.55-4.2L718.55-4.2 718.55-29.9 714.75-30.55 714.8-33.3 732.75-33.7Q739-33.7 743.05-30.68 747.1-27.65 747.1-23L747.1-23Q747.1-20.1 745.4-17.7 743.7-15.3 740.8-13.9L740.8-13.9 747.4-3.25ZM729.05-28.1L729.05-17.5Q730.25-17.15 731.4-17.15L731.4-17.15Q736.5-17.15 736.5-22.75L736.5-22.75Q736.5-26.55 734.4-28.85L734.4-28.85 729.05-28.1ZM778.29-8.2L779.84-3.55 769.14 0.85 767.69 0.9Q761.19 0.9 757.22-1.65 753.24-4.2 751.54-8.08 749.84-11.95 749.84-16.2L749.84-16.2Q749.84-20.9 751.87-25.05 753.89-29.2 757.99-31.75 762.09-34.3 767.99-34.3L767.99-34.3Q774.04-34.3 778.89-31L778.89-31 778.94-30.15Q778.94-26.15 777.59-20.75L777.59-20.75 771.39-20.75 769.59-27.9Q767.09-28.8 764.09-29.1L764.09-29.1Q760.24-24.95 760.24-17.5L760.24-17.5Q760.24-12.25 762.64-8.9 765.04-5.55 769.54-5.5L769.54-5.5 778.29-8.2ZM805.29-11.35L811.04-10.9Q811.14-5.95 810.44 0L810.44 0 781.44 0 781.14-1.6Q782.99-3 785.39-4.2L785.39-4.2 785.39-29.9 781.59-30.55 781.64-33.3 810.89-33.3Q810.99-31.45 810.69-28.23 810.39-25 809.84-22.55L809.84-22.55 804.09-22.55 803.09-27.85 795.89-28.35 795.89-18.8 806.04-19.65 806.04-13.9 795.89-14.3 795.89-5.05 803.34-5.7 805.29-11.35Z" opacity="1" transform="matrix(1,0,0,1,0,0)" fill="#ffffff" class="undefined-text-0" data-fill-palette-color="quaternary" id="text-0"></path></svg></g></svg></g></svg></g></svg></g><g></g></svg></g></svg></g></svg></g></svg><rect width="395.52" height="247.2" fill="none" stroke="none" visibility="hidden"></rect></g></svg></g></svg>